<svg width="28" height="27" viewBox="0 0 28 27" fill="none" xmlns="http://www.w3.org/2000/svg">
<path d="M12.6582 2.82635C12.9613 2.21216 13.1129 1.90506 13.3187 1.80695C13.4978 1.72158 13.7058 1.72158 13.8848 1.80695C14.0906 1.90506 14.2422 2.21216 14.5454 2.82635L17.4216 8.65333C17.5111 8.83465 17.5559 8.92531 17.6213 8.9957C17.6792 9.05803 17.7486 9.10853 17.8258 9.1444C17.9129 9.18491 18.0129 9.19954 18.213 9.22878L24.6468 10.1692C25.3243 10.2682 25.663 10.3177 25.8198 10.4832C25.9562 10.6272 26.0203 10.825 25.9944 11.0216C25.9645 11.2476 25.7193 11.4865 25.2288 11.9642L20.575 16.497C20.43 16.6383 20.3574 16.7089 20.3106 16.793C20.2692 16.8674 20.2426 16.9492 20.2323 17.0337C20.2207 17.1293 20.2379 17.2291 20.2721 17.4287L21.3702 23.831C21.486 24.5063 21.5439 24.8439 21.4351 25.0442C21.3404 25.2186 21.1721 25.3408 20.977 25.377C20.7528 25.4186 20.4496 25.2591 19.8432 24.9402L14.0915 21.9155C13.9123 21.8212 13.8227 21.7741 13.7283 21.7556C13.6447 21.7392 13.5588 21.7392 13.4752 21.7556C13.3808 21.7741 13.2912 21.8212 13.112 21.9155L7.36028 24.9402C6.75389 25.2591 6.45069 25.4186 6.22651 25.377C6.03145 25.3408 5.86314 25.2186 5.76845 25.0442C5.65963 24.8439 5.71753 24.5063 5.83335 23.831L6.93142 17.4287C6.96566 17.2291 6.98277 17.1293 6.97119 17.0337C6.96094 16.9492 6.93435 16.8674 6.89291 16.793C6.8461 16.7089 6.77357 16.6383 6.6285 16.497L1.97474 11.9642C1.48425 11.4865 1.239 11.2476 1.20916 11.0216C1.18319 10.825 1.24734 10.6272 1.38374 10.4832C1.54051 10.3177 1.87926 10.2682 2.55676 10.1692L8.99051 9.22878C9.1906 9.19954 9.29064 9.18491 9.37776 9.1444C9.4549 9.10853 9.52435 9.05803 9.58226 8.9957C9.64766 8.92531 9.69241 8.83465 9.78191 8.65333L12.6582 2.82635Z" stroke="#484848" stroke-width="2.10457" stroke-linecap="round" stroke-linejoin="round"/>
</svg>
