<svg width="24" height="29" viewBox="0 0 24 29" fill="none" xmlns="http://www.w3.org/2000/svg">
<path d="M14.7547 1.43085V6.86398C14.7547 7.60065 14.7547 7.96898 14.8981 8.25035C15.0242 8.49785 15.2254 8.69907 15.4729 8.82518C15.7543 8.96854 16.1226 8.96854 16.8593 8.96854H22.2924M22.6468 11.5838V21.0698C22.6468 23.2798 22.6468 24.3848 22.2167 25.2289C21.8384 25.9714 21.2348 26.5751 20.4923 26.9534C19.6481 27.3835 18.5431 27.3835 16.3331 27.3835H7.91487C5.70487 27.3835 4.59986 27.3835 3.75575 26.9534C3.01325 26.5751 2.40958 25.9714 2.03126 25.2289C1.60117 24.3848 1.60117 23.2798 1.60117 21.0698V7.39012C1.60117 5.18012 1.60117 4.07511 2.03126 3.231C2.40958 2.48851 3.01325 1.88483 3.75575 1.50651C4.59986 1.07642 5.70487 1.07642 7.91487 1.07642H12.1395C13.1047 1.07642 13.5872 1.07642 14.0414 1.18545C14.444 1.28211 14.8289 1.44155 15.182 1.65791C15.5802 1.90194 15.9215 2.24318 16.604 2.92566L20.7976 7.1193C21.4801 7.80178 21.8213 8.14302 22.0654 8.54125C22.2817 8.89431 22.4411 9.27923 22.5378 9.68187C22.6468 10.136 22.6468 10.6186 22.6468 11.5838Z" stroke="#484848" stroke-width="2.10457" stroke-linecap="round" stroke-linejoin="round"/>
</svg>
