<svg width="27" height="29" viewBox="0 0 27 29" fill="none" xmlns="http://www.w3.org/2000/svg">
<path d="M10.0147 26.555C10.9422 27.3736 12.1606 27.8703 13.4949 27.8703C14.8293 27.8703 16.0476 27.3736 16.9751 26.555M21.3871 9.45536C21.3871 7.36224 20.5556 5.35484 19.0755 3.87478C17.5954 2.39472 15.5881 1.56323 13.4949 1.56323C11.4018 1.56323 9.39441 2.39472 7.91435 3.87478C6.43429 5.35484 5.6028 7.36224 5.6028 9.45536C5.6028 13.5201 4.57744 16.303 3.43202 18.1438C2.46585 19.6965 1.98276 20.4729 2.00047 20.6895C2.02008 20.9293 2.07089 21.0207 2.26413 21.1641C2.43866 21.2936 3.22541 21.2936 4.79893 21.2936H22.1909C23.7644 21.2936 24.5512 21.2936 24.7257 21.1641C24.919 21.0207 24.9698 20.9293 24.9894 20.6895C25.0071 20.4729 24.524 19.6966 23.5578 18.1438C22.4124 16.303 21.3871 13.5201 21.3871 9.45536Z" stroke="#484848" stroke-width="2.10457" stroke-linecap="round" stroke-linejoin="round"/>
</svg>
