<svg width="30" height="30" viewBox="0 0 30 30" fill="none" xmlns="http://www.w3.org/2000/svg">
<path d="M15 15.0001L25.0912 9.2188M15 15.0001V26.5626M15 15.0001L9.95375 12.1101M25.0912 9.2188C24.7411 8.61765 24.2389 8.11928 23.635 7.7738L20.3125 5.87005M25.0912 9.2188C25.435 9.8088 25.625 10.4876 25.625 11.1938V18.8063C25.6246 19.5013 25.4403 20.1837 25.0908 20.7844C24.7413 21.3851 24.239 21.8826 23.635 22.2263L16.99 26.0338C16.3842 26.3807 15.6981 26.563 15 26.5626M15 26.5626C14.3019 26.563 13.6158 26.3807 13.01 26.0338L6.365 22.2263C5.13375 21.5213 4.375 20.2188 4.375 18.8063V11.1938C4.37482 10.5 4.55856 9.8185 4.9075 9.2188M9.95375 12.1101L4.9075 9.2188M9.95375 12.1101L20.3125 5.87005M20.3125 5.87005L16.99 3.9663C16.3843 3.61893 15.6982 3.43616 15 3.43616C14.3018 3.43616 13.6157 3.61893 13.01 3.9663L6.365 7.7738C5.76069 8.11911 5.258 8.61749 4.9075 9.2188" stroke="#484848" stroke-width="1.875" stroke-linejoin="round"/>
</svg>
