<svg width="31" height="31" viewBox="0 0 31 31" fill="none" xmlns="http://www.w3.org/2000/svg">
<path d="M12.3878 24.7139L13.1184 26.3569C13.3356 26.846 13.69 27.2616 14.1387 27.5533C14.5874 27.8449 15.111 28.0001 15.6462 28C16.1813 28.0001 16.705 27.8449 17.1537 27.5533C17.6024 27.2616 17.9568 26.846 18.174 26.3569L18.9045 24.7139C19.1646 24.1309 19.602 23.6448 20.1545 23.325C20.7105 23.0043 21.3537 22.8677 21.992 22.9347L23.7795 23.125C24.3116 23.1813 24.8486 23.082 25.3254 22.8392C25.8022 22.5963 26.1982 22.2204 26.4656 21.7569C26.7333 21.2938 26.8609 20.7628 26.8328 20.2286C26.8047 19.6944 26.6221 19.1798 26.3073 18.7472L25.249 17.2931C24.8721 16.7714 24.6708 16.1435 24.674 15.5C24.6738 14.8582 24.8771 14.2329 25.2545 13.7139L26.3128 12.2597C26.6277 11.8272 26.8102 11.3126 26.8383 10.7783C26.8664 10.2441 26.7389 9.71318 26.4712 9.25C26.2038 8.78654 25.8077 8.41061 25.3309 8.16778C24.8541 7.92496 24.3172 7.82566 23.7851 7.88194L21.9976 8.07222C21.3592 8.13926 20.716 8.00265 20.1601 7.68194C19.6065 7.36032 19.1689 6.8717 18.9101 6.28611L18.174 4.64306C17.9568 4.15396 17.6024 3.73839 17.1537 3.44675C16.705 3.1551 16.1813 2.99991 15.6462 3C15.111 2.99991 14.5874 3.1551 14.1387 3.44675C13.69 3.73839 13.3356 4.15396 13.1184 4.64306L12.3878 6.28611C12.129 6.8717 11.6914 7.36032 11.1378 7.68194C10.5819 8.00265 9.93868 8.13926 9.30035 8.07222L7.50729 7.88194C6.9752 7.82566 6.43821 7.92496 5.96143 8.16778C5.48465 8.41061 5.08856 8.78654 4.82118 9.25C4.55345 9.71318 4.42591 10.2441 4.45401 10.7783C4.48212 11.3126 4.66467 11.8272 4.97951 12.2597L6.03785 13.7139C6.41527 14.2329 6.61852 14.8582 6.6184 15.5C6.61852 16.1418 6.41527 16.7671 6.03785 17.2861L4.97951 18.7403C4.66467 19.1728 4.48212 19.6874 4.45401 20.2217C4.42591 20.7559 4.55345 21.2868 4.82118 21.75C5.08882 22.2132 5.48496 22.5889 5.96168 22.8317C6.43839 23.0745 6.97524 23.174 7.50729 23.1181L9.29479 22.9278C9.93313 22.8607 10.5763 22.9973 11.1323 23.3181C11.688 23.6388 12.1276 24.1275 12.3878 24.7139Z" stroke="#666666" stroke-width="2.5" stroke-linecap="round" stroke-linejoin="round"/>
<path d="M15.6439 19.25C17.715 19.25 19.3939 17.5711 19.3939 15.5C19.3939 13.4289 17.715 11.75 15.6439 11.75C13.5729 11.75 11.8939 13.4289 11.8939 15.5C11.8939 17.5711 13.5729 19.25 15.6439 19.25Z" stroke="#666666" stroke-width="2.5" stroke-linecap="round" stroke-linejoin="round"/>
</svg>
