<svg width="25" height="25" viewBox="0 0 25 25" fill="none" xmlns="http://www.w3.org/2000/svg">
<path d="M21.124 9.41249L21.124 3.41249M21.124 3.41249H15.124M21.124 3.41249L12.124 12.4125M10.124 3.41248H7.92399C6.24384 3.41248 5.40376 3.41248 4.76202 3.73946C4.19754 4.02708 3.73859 4.48602 3.45097 5.0505C3.12399 5.69224 3.12399 6.53232 3.12399 8.21248V16.6125C3.12399 18.2926 3.12399 19.1327 3.45097 19.7744C3.73859 20.3389 4.19754 20.7979 4.76202 21.0855C5.40376 21.4125 6.24384 21.4125 7.92399 21.4125H16.324C18.0042 21.4125 18.8442 21.4125 19.486 21.0855C20.0505 20.7979 20.5094 20.3389 20.797 19.7744C21.124 19.1327 21.124 18.2926 21.124 16.6125V14.4125" stroke="#484848" stroke-width="2" stroke-linecap="round" stroke-linejoin="round"/>
</svg>
