<svg width="25" height="25" viewBox="0 0 25 25" fill="none" xmlns="http://www.w3.org/2000/svg">
<circle cx="12.5" cy="12.5" r="12.5" fill="black" fill-opacity="0.3"/>
<path d="M12.5333 4.52344L12.5577 4.5498L14.7071 8.9043C14.7971 9.08637 14.9601 9.21956 15.1534 9.27246L15.2383 9.29004L20.043 9.98828C20.0826 9.99402 20.1045 10.0322 20.0967 10.0664L20.0792 10.0977L16.6016 13.4873C16.4561 13.6292 16.3802 13.826 16.3897 14.0264L16.3985 14.1123L17.2198 18.8984C17.2263 18.9377 17.197 18.9695 17.1622 18.9727L17.127 18.9658L12.8292 16.7061C12.6491 16.6114 12.4378 16.5998 12.2501 16.6709L12.1719 16.7061L7.87408 18.9658C7.83879 18.9844 7.79816 18.9667 7.78424 18.9346L7.78033 18.8984L8.60162 14.1123C8.63597 13.9119 8.58154 13.7083 8.45612 13.5518L8.3985 13.4873L4.92096 10.0977C4.89273 10.0698 4.89763 10.027 4.92389 10.0039L4.95709 9.98828L9.76178 9.29004C9.96297 9.2608 10.1409 9.14716 10.251 8.97949L10.294 8.9043L12.4424 4.5498C12.4602 4.51389 12.5031 4.50528 12.5333 4.52344Z" stroke="white" stroke-width="0.641872"/>
</svg>
