<svg width="27" height="29" viewBox="0 0 27 29" fill="none" xmlns="http://www.w3.org/2000/svg">
<path d="M24.9595 16.425H15.3762V26.4874C15.3762 27.0212 15.1742 27.5331 14.8148 27.9105C14.4554 28.2879 13.9678 28.4999 13.4595 28.4999C12.9512 28.4999 12.4637 28.2879 12.1042 27.9105C11.7448 27.5331 11.5428 27.0212 11.5428 26.4874V16.425H1.95951C1.45118 16.425 0.96367 16.2129 0.604226 15.8355C0.244781 15.4581 0.0428467 14.9462 0.0428467 14.4125C0.0428467 13.8787 0.244781 13.3668 0.604226 12.9894C0.96367 12.612 1.45118 12.4 1.95951 12.4H11.5428V2.33745C11.5428 1.8037 11.7448 1.29182 12.1042 0.914398C12.4637 0.536981 12.9512 0.324951 13.4595 0.324951C13.9678 0.324951 14.4554 0.536981 14.8148 0.914398C15.1742 1.29182 15.3762 1.8037 15.3762 2.33745V12.4H24.9595C25.4678 12.4 25.9554 12.612 26.3148 12.9894C26.6742 13.3668 26.8762 13.8787 26.8762 14.4125C26.8762 14.9462 26.6742 15.4581 26.3148 15.8355C25.9554 16.2129 25.4678 16.425 24.9595 16.425Z" fill="#484848"/>
</svg>
