<svg width="25" height="26" viewBox="0 0 25 26" fill="none" xmlns="http://www.w3.org/2000/svg">
<circle cx="12.5" cy="13.0603" r="12.5" fill="black" fill-opacity="0.3"/>
<path d="M12.533 5.08371L12.5574 5.11008L14.7068 9.46457C14.7968 9.6469 14.9605 9.77993 15.1541 9.83273L15.238 9.85031L20.0437 10.5486C20.0831 10.5543 20.1051 10.5925 20.0974 10.6267L20.0789 10.6579L16.6023 14.0476C16.4567 14.1895 16.3799 14.3863 16.3894 14.5866L16.3992 14.6726L17.2195 19.4587C17.2261 19.4981 17.1969 19.5299 17.1619 19.5329L17.1267 19.5261L12.8289 17.2663C12.6489 17.1717 12.4383 17.1603 12.2507 17.2312L12.1716 17.2663L7.87378 19.5261C7.83857 19.5446 7.79892 19.5269 7.78491 19.4948L7.78101 19.4587L8.60132 14.6726C8.63566 14.4723 8.58205 14.2685 8.45679 14.112L8.39819 14.0476L4.92163 10.6579C4.89312 10.6301 4.8974 10.5874 4.92358 10.5642L4.95679 10.5486L9.76245 9.85031C9.96339 9.82098 10.1407 9.70722 10.2507 9.53976L10.2937 9.46457L12.4421 5.11008C12.4598 5.07426 12.5028 5.06576 12.533 5.08371Z" fill="#F3E11F" stroke="#F3E11F" stroke-width="0.641872"/>
</svg>
