<svg width="198" height="219" viewBox="0 0 198 219" fill="none" xmlns="http://www.w3.org/2000/svg">
<path d="M45.2102 40.8268C44.8059 39.4212 44.2379 38.1793 43.5062 37.1011C42.7746 36.0036 41.8792 35.0794 40.8203 34.3285C39.7805 33.5583 38.5868 32.9711 37.239 32.5667C35.9105 32.1624 34.4375 31.9602 32.8202 31.9602C29.7973 31.9602 27.1402 32.7112 24.8489 34.213C22.5769 35.7148 20.8056 37.9001 19.5348 40.769C18.264 43.6186 17.6286 47.1036 17.6286 51.224C17.6286 55.3444 18.2544 58.8487 19.5059 61.7368C20.7574 64.6249 22.5288 66.8295 24.8201 68.3506C27.1113 69.8524 29.8165 70.6033 32.9357 70.6033C35.766 70.6033 38.1824 70.1027 40.1849 69.1015C42.2066 68.081 43.7469 66.6466 44.8059 64.7982C45.8841 62.9498 46.4232 60.7645 46.4232 58.2422L48.9648 58.6176H33.7155V49.2023H58.4667V56.6537C58.4667 61.8523 57.3692 66.3193 55.1742 70.0546C52.9793 73.7706 49.9564 76.6395 46.1055 78.6612C42.2547 80.6636 37.8455 81.6648 32.8779 81.6648C27.3327 81.6648 22.4614 80.4422 18.264 77.9969C14.0666 75.5324 10.7934 72.0378 8.4444 67.513C6.11464 62.9691 4.94977 57.5779 4.94977 51.3395C4.94977 46.5453 5.64292 42.2708 7.02922 38.5163C8.43477 34.7425 10.3987 31.5463 12.921 28.9277C15.4433 26.3091 18.3795 24.3163 21.7298 22.9493C25.08 21.5822 28.7094 20.8987 32.618 20.8987C35.9682 20.8987 39.0874 21.3897 41.9755 22.3717C44.8636 23.3344 47.4244 24.7014 49.6579 26.4728C51.9107 28.2442 53.7494 30.3525 55.1742 32.7978C56.599 35.2238 57.5136 37.9001 57.918 40.8268H45.2102ZM80.3659 21.7074V80.8562H67.8603V21.7074H80.3659ZM101.341 21.7074L115.637 66.6466H116.186L130.511 21.7074H144.374L123.984 80.8562H107.868L87.449 21.7074H101.341ZM151.493 80.8562V21.7074H191.349V32.018H163.999V46.112H189.299V56.4226H163.999V70.5456H191.465V80.8562H151.493Z" fill="white"/>
<path d="M0.848633 97.0297H196.172V101.909H0.848633V97.0297Z" fill="white"/>
<path d="M190.853 218.755H7.14746V106.232H190.853V218.755ZM98.9902 133.422C94.8067 133.422 90.9253 134.153 87.3467 135.614C83.768 137.026 80.6431 139.042 77.9717 141.663C75.3002 144.284 73.2332 147.36 71.7715 150.888C70.3099 154.416 69.5791 158.272 69.5791 162.455C69.5791 166.588 70.3097 170.445 71.7715 174.024C73.2836 177.552 75.3756 180.626 78.0469 183.247C80.7183 185.868 83.8441 187.911 87.4229 189.372C91.0014 190.834 94.8573 191.565 98.9902 191.565C103.174 191.565 107.03 190.834 110.559 189.372C114.137 187.911 117.262 185.868 119.934 183.247C122.605 180.626 124.697 177.552 126.209 174.024C127.721 170.445 128.478 166.588 128.478 162.455C128.478 158.272 127.721 154.416 126.209 150.888C124.747 147.36 122.681 144.31 120.01 141.739C117.338 139.118 114.213 137.076 110.634 135.614C107.055 134.153 103.174 133.422 98.9902 133.422ZM19.7236 134.329V190.657H43.4639C49.7645 190.657 54.6787 189.145 58.207 186.12C61.7858 183.046 63.5752 178.811 63.5752 173.418C63.5751 171.301 63.2479 169.285 62.5928 167.37C61.9375 165.455 60.8033 163.716 59.1904 162.154C58.4972 161.482 57.6965 160.857 56.7891 160.279C57.7641 159.42 58.5658 158.483 59.1904 157.465C60.6016 155.197 61.3076 152.778 61.3076 150.207C61.3076 146.881 60.576 144.058 59.1143 141.739C57.7029 139.37 55.6617 137.555 52.9902 136.295C50.3692 134.985 47.1937 134.329 43.4639 134.329H19.7236ZM130.115 134.329L148.412 162.304L129.964 190.657H141.759L154.151 171.633L166.482 190.657H178.276L159.904 162.304L178.125 134.329H166.331L154.15 153.063L141.909 134.329H130.115ZM98.9902 142.798C101.763 142.798 104.308 143.277 106.627 144.235C108.945 145.192 110.962 146.578 112.676 148.393C114.44 150.157 115.775 152.249 116.683 154.668C117.64 157.037 118.119 159.633 118.119 162.455C118.119 165.278 117.64 167.899 116.683 170.319C115.775 172.738 114.44 174.83 112.676 176.594C110.962 178.358 108.945 179.744 106.627 180.752C104.308 181.71 101.763 182.189 98.9902 182.189C96.2685 182.189 93.7482 181.71 91.4297 180.752C89.1112 179.744 87.0698 178.358 85.3057 176.594C83.5919 174.83 82.2565 172.738 81.2988 170.319C80.3411 167.899 79.8623 165.278 79.8623 162.455C79.8623 159.633 80.3412 157.037 81.2988 154.668C82.2565 152.249 83.5919 150.157 85.3057 148.393C87.0698 146.578 89.1112 145.192 91.4297 144.235C93.7482 143.277 96.2685 142.798 98.9902 142.798ZM44.5225 165.177C47.1937 165.177 49.3105 165.934 50.873 167.445C52.4859 168.958 53.2929 170.949 53.293 173.418C53.293 175.888 52.486 177.88 50.873 179.392C49.3105 180.853 47.1937 181.584 44.5225 181.584H30.0059V165.177H44.5225ZM43.9932 143.1C46.1101 143.1 47.7985 143.68 49.0586 144.839C50.3187 145.998 50.9492 147.561 50.9492 149.527C50.9492 151.492 50.3187 153.105 49.0586 154.365C47.7985 155.575 46.1101 156.18 43.9932 156.18H30.0059V143.1H43.9932Z" fill="white"/>
</svg>
