<svg width="30" height="30" viewBox="0 0 30 30" fill="none" xmlns="http://www.w3.org/2000/svg">
<path d="M11.25 26.25V17C11.25 16.2999 11.25 15.9499 11.3862 15.6825C11.5061 15.4473 11.6973 15.2561 11.9325 15.1362C12.1999 15 12.5499 15 13.25 15H16.75C17.4501 15 17.8001 15 18.0675 15.1362C18.3027 15.2561 18.4939 15.4473 18.6138 15.6825C18.75 15.9499 18.75 16.2999 18.75 17V26.25M2.5 11.875L13.8 3.4C14.2303 3.07726 14.4455 2.91589 14.6818 2.85368C14.8904 2.79877 15.1096 2.79877 15.3182 2.85368C15.5545 2.91589 15.7697 3.07726 16.2 3.4L27.5 11.875M5.00001 10V22.25C5.00001 23.6501 5.00001 24.3502 5.27249 24.885C5.51217 25.3554 5.89462 25.7378 6.36503 25.9775C6.89981 26.25 7.59987 26.25 9 26.25H21C22.4001 26.25 23.1002 26.25 23.635 25.9775C24.1054 25.7378 24.4878 25.3554 24.7275 24.885C25 24.3502 25 23.6501 25 22.25V10L17.4 4.3C16.5394 3.65452 16.109 3.33177 15.6364 3.20736C15.2193 3.09755 14.7808 3.09755 14.3636 3.20736C13.891 3.33177 13.4607 3.65452 12.6 4.3L5.00001 10Z" stroke="#484848" stroke-width="2" stroke-linecap="round" stroke-linejoin="round"/>
</svg>
