<svg width="25" height="27" viewBox="0 0 25 27" fill="none" xmlns="http://www.w3.org/2000/svg">
<path d="M19.0415 11.0874V8.45666C19.0415 4.82441 16.097 1.87988 12.4647 1.87988C8.83248 1.87988 5.88796 4.8244 5.88796 8.45666V11.0874M12.4647 17.0065V19.6372M8.2556 25.5563H16.6739C18.8839 25.5563 19.9889 25.5563 20.833 25.1262C21.5755 24.7479 22.1792 24.1442 22.5575 23.4017C22.9876 22.5576 22.9876 21.4526 22.9876 19.2426V17.4011C22.9876 15.1911 22.9876 14.0861 22.5575 13.242C22.1792 12.4995 21.5755 11.8958 20.833 11.5175C19.9889 11.0874 18.8839 11.0874 16.6739 11.0874H8.2556C6.04559 11.0874 4.94059 11.0874 4.09648 11.5175C3.35398 11.8958 2.75031 12.4995 2.37199 13.242C1.94189 14.0861 1.94189 15.1911 1.94189 17.4011V19.2426C1.94189 21.4526 1.94189 22.5576 2.37199 23.4017C2.75031 24.1442 3.35398 24.7479 4.09648 25.1262C4.94059 25.5563 6.04559 25.5563 8.2556 25.5563Z" stroke="#484848" stroke-width="2.10457" stroke-linecap="round" stroke-linejoin="round"/>
</svg>
