<svg width="27" height="29" viewBox="0 0 27 29" fill="none" xmlns="http://www.w3.org/2000/svg">
<path d="M9.35283 16.703L18.3367 21.9381M18.3236 7.49548L9.35283 12.7306M25.6764 5.5093C25.6764 7.68865 23.9097 9.45536 21.7303 9.45536C19.551 9.45536 17.7843 7.68865 17.7843 5.5093C17.7843 3.32995 19.551 1.56323 21.7303 1.56323C23.9097 1.56323 25.6764 3.32995 25.6764 5.5093ZM9.89213 14.7168C9.89213 16.8961 8.12542 18.6628 5.94606 18.6628C3.76671 18.6628 2 16.8961 2 14.7168C2 12.5374 3.76671 10.7707 5.94606 10.7707C8.12542 10.7707 9.89213 12.5374 9.89213 14.7168ZM25.6764 23.9243C25.6764 26.1036 23.9097 27.8703 21.7303 27.8703C19.551 27.8703 17.7843 26.1036 17.7843 23.9243C17.7843 21.7449 19.551 19.9782 21.7303 19.9782C23.9097 19.9782 25.6764 21.7449 25.6764 23.9243Z" stroke="#484848" stroke-width="2.10457" stroke-linecap="round" stroke-linejoin="round"/>
</svg>
