<svg width="30" height="25" viewBox="0 0 30 25" fill="none" xmlns="http://www.w3.org/2000/svg">
<path d="M27.4277 20.4484L18.69 12.5563M11.1737 12.5563L2.43604 20.4484M1.77832 5.97951L12.5181 13.4973C13.3878 14.1061 13.8226 14.4105 14.2956 14.5284C14.7134 14.6326 15.1504 14.6326 15.5682 14.5284C16.0411 14.4105 16.476 14.1061 17.3456 13.4973L28.0854 5.97951M8.09202 23.0791H21.7717C23.9817 23.0791 25.0867 23.0791 25.9308 22.649C26.6733 22.2707 27.277 21.667 27.6553 20.9245C28.0854 20.0804 28.0854 18.9754 28.0854 16.7654V8.34715C28.0854 6.13715 28.0854 5.03215 27.6553 4.18804C27.277 3.44554 26.6733 2.84187 25.9308 2.46354C25.0867 2.03345 23.9817 2.03345 21.7717 2.03345H8.09202C5.88202 2.03345 4.77702 2.03345 3.93291 2.46354C3.19041 2.84187 2.58674 3.44554 2.20842 4.18804C1.77832 5.03215 1.77832 6.13715 1.77832 8.34715V16.7654C1.77832 18.9754 1.77832 20.0804 2.20842 20.9245C2.58674 21.667 3.19041 22.2707 3.93291 22.649C4.77702 23.0791 5.88202 23.0791 8.09202 23.0791Z" stroke="#484848" stroke-width="2.10457" stroke-linecap="round" stroke-linejoin="round"/>
</svg>
