<svg width="26" height="27" viewBox="0 0 26 27" fill="none" xmlns="http://www.w3.org/2000/svg">
<path d="M1.24457 7.59593C1.24457 5.38593 1.24457 4.28092 1.67466 3.43682C2.05299 2.69432 2.65666 2.09064 3.39916 1.71232C4.24327 1.28223 5.34827 1.28223 7.55827 1.28223H18.6073C20.8173 1.28223 21.9223 1.28223 22.7664 1.71232C23.5089 2.09064 24.1125 2.69432 24.4909 3.43682C24.921 4.28092 24.921 5.38593 24.921 7.59593V14.6988C24.921 16.9088 24.921 18.0139 24.4909 18.858C24.1125 19.6005 23.5089 20.2041 22.7664 20.5825C21.9223 21.0125 20.8173 21.0125 18.6073 21.0125H15.2975C14.4766 21.0125 14.0662 21.0125 13.6736 21.0931C13.3253 21.1646 12.9883 21.2828 12.6717 21.4446C12.3148 21.6269 11.9943 21.8833 11.3533 22.3961L8.21563 24.9063C7.66833 25.3441 7.39468 25.563 7.16437 25.5633C6.96408 25.5635 6.77461 25.4724 6.64966 25.3159C6.50599 25.1359 6.50599 24.7854 6.50599 24.0846V21.0125C5.28274 21.0125 4.67112 21.0125 4.16932 20.8781C2.80756 20.5132 1.74391 19.4496 1.37903 18.0878C1.24457 17.586 1.24457 16.9744 1.24457 15.7511V7.59593Z" stroke="#484848" stroke-width="2.10457" stroke-linecap="round" stroke-linejoin="round"/>
</svg>
