<svg width="20" height="20" viewBox="0 0 20 20" fill="none" xmlns="http://www.w3.org/2000/svg">
<circle cx="9.62809" cy="9.62809" r="9.62809" fill="black" fill-opacity="0.3"/>
<path d="M9.66083 3.67151L9.68622 3.69788L11.2409 6.84924C11.3309 7.03159 11.4946 7.16453 11.6882 7.21741L11.7731 7.23596L15.2507 7.74084C15.3031 7.74866 15.3239 7.81314 15.2858 7.85022L12.7692 10.3033C12.6237 10.4453 12.5478 10.642 12.5573 10.8424L12.5661 10.9283L13.1608 14.3922C13.1696 14.4445 13.1141 14.4843 13.0671 14.4596L9.95673 12.8239C9.77684 12.7294 9.56614 12.7178 9.3786 12.7887L9.2995 12.8239L6.18915 14.4596C6.15392 14.4781 6.11427 14.4604 6.10028 14.4283L6.09637 14.3922L6.69012 10.9283C6.7294 10.6993 6.65338 10.4656 6.487 10.3033L3.9704 7.85022C3.93248 7.81317 3.95323 7.74877 4.00555 7.74084L7.48407 7.23596C7.68514 7.20667 7.8623 7.09201 7.97235 6.92444L8.01532 6.84924L9.57098 3.69788C9.58868 3.66222 9.6307 3.65367 9.66083 3.67151Z" stroke="white" stroke-width="0.641872"/>
</svg>
